<?xml version="1.0" encoding="UTF-8" standalone="no"?>
<svg
   width="64"
   height="64"
   version="1.1"
   id="svg1"
   sodipodi:docname="keyboard_any_outline.svg"
   inkscape:version="1.3.2 (091e20e, 2023-11-25, custom)"
   xmlns:inkscape="http://www.inkscape.org/namespaces/inkscape"
   xmlns:sodipodi="http://sodipodi.sourceforge.net/DTD/sodipodi-0.dtd"
   xmlns:xlink="http://www.w3.org/1999/xlink"
   xmlns="http://www.w3.org/2000/svg"
   xmlns:svg="http://www.w3.org/2000/svg">
  <sodipodi:namedview
     id="namedview1"
     pagecolor="#505050"
     bordercolor="#eeeeee"
     borderopacity="1"
     inkscape:showpageshadow="0"
     inkscape:pageopacity="0"
     inkscape:pagecheckerboard="0"
     inkscape:deskcolor="#d1d1d1"
     inkscape:zoom="3.2070313"
     inkscape:cx="-38.509135"
     inkscape:cy="21.047503"
     inkscape:window-width="1920"
     inkscape:window-height="1017"
     inkscape:window-x="1912"
     inkscape:window-y="-8"
     inkscape:window-maximized="1"
     inkscape:current-layer="svg1" />
  <defs
     id="defs1" />
  <g
     id="g1">
    <rect
       style="fill:#ffffff;fill-opacity:1"
       id="rect1"
       width="44.04385"
       height="43.809986"
       x="10.133983"
       y="10.367844"
       ry="6.3922048" />
    <path
       stroke="none"
       fill="#FFFFFF"
       d="m 53,16 c 0,-3.333333 -1.666667,-5 -5,-5 H 16 c -3.333333,0 -5,1.666667 -5,5 v 32 c 0,3.333333 1.666667,5 5,5 h 32 c 3.333333,0 5,-1.666667 5,-5 V 16 M 48,8 c 5.333333,0 8,2.666667 8,8 v 32 c 0,5.333333 -2.666667,8 -8,8 H 16 C 10.666667,56 8,53.333333 8,48 V 16 c 0,-5.333333 2.666667,-8 8,-8 h 32"
       id="path1"
       inkscape:label="path1"
       style="display:inline;fill:#000000;fill-opacity:1"
       sodipodi:nodetypes="csssssssccsssssssc" />
    <use
       x="0"
       y="0"
       xlink:href="#path1"
       id="use2" />
  </g>
  <path
     style="fill:#ffffff;fill-opacity:1;stroke:#000000;stroke-width:3.8;stroke-linecap:round;stroke-linejoin:round;stroke-dasharray:none;stroke-opacity:1;paint-order:normal"
     d="M 20.266535,32.279747 29.011289,41.733561 43.73347,22.266535"
     id="path3"
     sodipodi:nodetypes="ccc" />
</svg>
